<?xml version="1.0" encoding="UTF-8"?>
<svg version="1.1" viewBox="0 0 2000 1591" width="35px" height="43px" xmlns="http://www.w3.org/2000/svg">
<path transform="translate(1291,677)" d="m0 0h31l24 3 2 1v85l-10-2-35-10-2-1 26 53 19 39 22 45 1 3-8 10-3 4 15-2h26l17 3 17 6 14 7 14 10 13 12 3 5-24 14-6 4 12 9 10 10 7 10 8 15 5 16 2 15v12l-2 14-5 16-9 17-9 11-9 9-13 9-17 8-17 4-10 1h-9l-16-2-16-5-17-9-11-9-9-9-7-10-8-15-5-16-1-6v-10l-24 14h-2l-4-12-3-17-1-19-12 14-8 10-5 6h-205v2h-34v11l-4 17-7 16-9 13-11 12-15 11-15 7-14 4-15 2h-10l-20-3-16-6-15-9-12-11-9-10-8-13-6-15-3-12-1-14h-38v-12l3-17 1-3h-170l-3-4 1-5 3-2h173l3-9 6-11-113-1-4-3v-6l3-2h123l2-4 12-14 11-10 15-11 16-9 11-6 16-29 5-9-42-1v-52h268v52h-32l-2 6-7 16-4 14-2 12v14l3 17 7 16 8 12 6 7 4 3h122l9-5 15-14 9-10 14-19 12-21 11-23 2-11v-18l-3-22-7-30-10-32-11-30-12-29-12-27-1-5 4-5 13-9 11-5 15-4z" fill="#242021"/>
<path transform="translate(975,595)" d="m0 0h12l8 4 7 8 3 8v7l-4 12 23 4 22 7 21 10 17 11 11 9 12 11 11 12 12 17 9 16 8 19 6 20 3 17 1 10v12h-352v-14l3-21 5-20 8-20 8-15 11-16 9-11 17-17 16-12 15-9 19-9 22-7 22-4v-3l-3-7v-11l5-10 8-6z" fill="#231F20"/>
<path transform="translate(320,443)" d="m0 0 4 2 14 12 65 55 14 12 11 9 15 13 3 2-2 5-9 10-9 11-5 6-37-3-77-7h-4l11 10 11 9 14 12 26 22 11 9-6 8-12 14-9 11h-4l-14-12-65-55-14-12-11-9-15-13-5-5 9-10 9-11 10-12h12l99 9-11-10-11-9-15-13-11-9-15-13-5-4 2-4 13-15 11-13z" fill="#231F20"/>
<path transform="translate(700,211)" d="m0 0 3 1 19 47 40 98 2 7-11 5-25 10-5-2-23-15-50-32-17-11-5-3 3 9 20 49 12 29-1 3-39 16-2-1-17-42-40-98-4-10 1-3 39-16 5 2 34 22 25 16 20 13 11 7-9-21-22-54-3-7v-3z" fill="#231F20"/>
<path transform="translate(120,934)" d="m0 0h26l17 3 14 5 13 7 9 7 7 7 6-1 6-8 3-10 1-1 17 1 17 2-1 12-4 16-6 11-9 10-10 8-3 2-1 18-3 16-5 13-6 11-9 10-9 8-10 6-14 5-10 2h-29l-16-3-16-6-12-7-10-9-8-9-7-12-4-12-2-11v-19l3-16 5-14 7-12 11-12 10-7 15-7zm-4 48-11 3-9 6-6 8-2 7v12l4 10 8 8 11 5 17 4 9 1h21l12-3 6-4 7-8 3-9v-13l-3-8-8-9-10-5-17-4-9-1z" fill="#231F20"/>
<path transform="translate(1180,189)" d="m0 0 16 4 40 12 16 6 15 8 10 8 9 9 7 11 5 12 2 10v23l-4 18-5 13-8 15-11 13-12 9-14 6-13 3h-21l-20-4-58-17 1-7 24-82 20-68zm33 46-3 8-24 82 1 2 17 5h14l11-4 10-8 7-10 5-12 3-11 1-6v-11l-3-11-5-8-9-8-16-6z" fill="#231F20"/>
<path transform="translate(1857,772)" d="m0 0h2l15 49 9 31 1 6v21l-4 12-7 10-8 7-16 8-12 3h-18l-10-3-12-7-5-3-14 13-11 9-13 12-11 9-3 2-3-8-10-33 1-4 11-9 13-11 14-11 7-6-1-7-4-16-25 8-27 8h-3l-9-29-3-10v-4l143-43zm-18 52-37 11-2 1 1 7 7 22 4 5 8 4 8 1 8-2 7-5 5-10v-9l-8-25z" fill="#231F20"/>
<path transform="translate(892,172)" d="m0 0 3 1 28 159v3l-21 4-17 3h-6l-4-20-7-40-1-4-52 9h-3l11 63-1 3-39 7h-4l-8-44-20-114v-5l39-7h5l10 57v4l51-9h5l-10-57v-5l7-2z" fill="#231F20"/>
<path transform="translate(118,745)" d="m0 0 7 1 55 18 36 12 12 5 12 8 10 9 7 11 4 13v23l-4 17-6 16-8 14-9 10-9 7-12 5-5 1h-23l-17-4-70-23-24-8 12-37 2-6 11 3 42 14 47 15h16l10-6 5-8 2-8-1-11-5-8-8-6-16-6-48-16-37-12-1-3z" fill="#231F20"/>
<path transform="translate(1358,247)" d="m0 0 48 24 19 10 41 21-1 5-14 27-3 1-32-16-19-10-17-8-2 6-8 16v2l20 10 19 10 17 9-16 32-6-2-50-26-3-1-2 6-10 19 6 2 41 21 22 12-9 19-8 14-40-20-19-10-47-24-2-1 1-5 21-41 18-35 20-39 14-27z" fill="#231F20"/>
<path transform="translate(1785,624)" d="m0 0h2l23 45 12 23 18 35 2 6-24 12-7 4h-2l-10-20-10-19-14-27v-2l-24 12 9 19 15 29 4 8v2l-27 14-5 2-12-24-10-19-7-13-6 2-18 9 9 19 18 35 7 13v3l-29 15-4 1-23-45-10-19-20-39-2-6 41-21 27-14 29-15 33-17z" fill="#231F20"/>
<path transform="translate(197,597)" d="m0 0 5 2 27 15-2 6-16 29-15 27-3 6 21 12 3 1 2-6 16-29 12-21 16 8 15 9-2 6-13 24-13 23-2 5 5 2 17 9 3-1 14-26 10-18 12-21 6 2 27 15-8 16-15 27-16 29-15 27-5 8-6-2-83-46-56-31 8-16 13-23 13-24 13-23 11-20z" fill="#231F20"/>
<path transform="translate(991,170)" d="m0 0 36 1 9 1 12 36 21 66 20 63v2l-40-1-4-1-7-21-3-10-17-1-31-1-4-1-3 10-8 21-1 1h-16l-28-1 1-5 19-49 20-51 16-41 7-17zm20 45-17 49v2l32 1-1-7-12-44z" fill="#231F20"/>
<path transform="translate(1669,467)" d="m0 0 3 1 10 13 13 17-1 4-12 19-14 21-21 32-15 23h2l52-18 48-17 6-2h4l10 13 14 18v2l-42 15-108 38-11 4h-4l-10-13-11-14-8-10 2-5 71-108z" fill="#231F20"/>
<path transform="translate(1904,933)" d="m0 0 2 4 4 40v4l-16 11-23 16-15 10 2 2 54 23 4 2 2 14 3 30v4l-9-3-24-12-23-11-35-17-9-4h-12l-51 5h-7l-1-2-4-42 14-2 51-5 6-2 21-16 14-10 21-16 19-14z" fill="#231F20"/>
<path transform="translate(455,331)" d="m0 0h2l11 14 12 15-2 4-13 10-16 13-4 3 2 5 10 12 11 14 13 16 22 28 13 16 6 9-16 13-13 10-6 4-8-9-11-14-13-16-10-13-13-16-11-14-12-15-4 2-14 11-16 13-4 1-10-12-11-14-2-5 14-11 16-13 28-22 16-13 14-11 16-13z" fill="#231F20"/>
<path transform="translate(1500,326)" d="m0 0 5 2 21 16 10 7-2 5-12 16-14 19-16 21-13 18-16 21-2 5 38 28 13 10-2 5-10 13-9 12-9-6-21-16-14-10-21-16-19-14-5-5 14-18 28-38 16-21 28-38z" fill="#231F20"/>
<path transform="translate(520,293)" d="m0 0h2l17 29 17 28 18 30 17 28 15 25v2l-28 17-8 5-3-1-15-25-17-28-19-32-17-28-16-27 5-4 29-17z" fill="#231F20"/>
<path transform="translate(1612,415)" d="m0 0 4 2 16 15 13 13-6 7-14 15-12 12-7 8-15 15-7 8-15 15-7 8-15 15-7 8-8 8-4-2-16-15-13-13 6-7 10-10 7-8 16-16 7-8 15-15 7-8 15-15 7-8 15-15 7-8z" fill="#231F20"/>
<path transform="translate(513,931)" d="m0 0h249l3 3v5l-4 3h-247l-4-2-1-5z" fill="#363233"/>
<path transform="translate(561,776)" d="m0 0h238l3 3-1 6-4 2h-235l-4-3 1-7z" fill="#363233"/>
<path transform="translate(651,887)" d="m0 0h163l5 5-2 5-1 1h-168l-2-3 1-6z" fill="#363333"/>
<path transform="translate(690,729)" d="m0 0h86l4 3v5l-3 3h-88l-3-4 1-5z" fill="#231F20"/>
</svg>
