<?xml version="1.0" encoding="UTF-8"?>
<svg version="1.1" viewBox="0 0 2000 1591" width="35px" height="43px" xmlns="http://www.w3.org/2000/svg">
<path transform="translate(0)" d="m0 0h2e3v1591h-2e3z" fill="#DBFE00"/>
<path transform="translate(1292,710)" d="m0 0h30l24 3 2 1v84l-11-2-36-10 17 35 23 47 20 41 7 14-1 5-9 11-1 2 17-3h24l18 3 17 6 14 7 14 10 13 12 2 5-27 16-2 2 13 10 9 9 9 13 7 15 4 14 1 7v25l-4 17-5 12-8 14-12 13-9 8-13 8-15 6-13 3-7 1h-18l-20-4-16-7-11-7-12-11-9-10-9-16-5-13-3-15-1-7-22 13h-3l-5-17-2-15-1-16-11 13-8 10-6 7h-205v2l-33 1-3 19-6 18-8 14-9 11-8 8-13 9-17 8-16 4-7 1h-18l-20-4-16-7-11-7-10-9-8-8-10-15-7-17-3-13-1-12-38-1v-9l4-23h-170l-3-4 2-5 1-1 174-1 8-17 2-3-116-1-2-2v-6l3-2 123-1 8-10 16-16 13-10 15-9 15-8 15-27 6-11-42-1v-51h268v51l-32 1-8 17-5 16-2 11v20l3 14 6 15 9 13 10 10h122l10-6 12-11 7-7 13-17 10-15 13-24 6-15 1-6v-23l-3-21-6-25-9-30-13-36-15-36-10-22 2-4 7-7 14-8 15-5z" fill="#231F20"/>
<path transform="translate(975,628)" d="m0 0h12l8 4 7 8 2 5 1 7-2 9-3 5 1 1 23 4 24 8 19 9 18 12 14 11 13 13 11 14 10 15 8 15 8 21 5 20 2 14 1 19h-352v-11l2-17 4-19 6-18 11-23 10-15 13-16 14-14 17-13 17-10 17-8 22-7 23-4v-2l-3-6-1-11 3-9 5-6z" fill="#231F20"/>
<path transform="translate(170,939)" d="m0 0h20l18 3 15 5 13 7 9 7 6 5 2 3 5-2 5-5 4-9 1-5 15 1 18 2 1 1-1 12-4 16-7 12-11 11-9 6-1 5-2 22-4 15-8 16-10 12-12 9-15 7-18 4h-24l-17-3-15-5-14-8-12-10-9-12-6-13-3-10-1-7v-22l3-15 5-13 5-9 8-10 10-9 15-8 12-4z" fill="#231F20"/>
<path transform="translate(1227,195)" d="m0 0 7 1 47 14 16 6 17 9 10 8 8 8 7 11 5 12 2 8 1 16-2 16-4 15-7 16-7 11-11 12-10 7-11 5-16 4h-20l-20-4-58-17 1-8 44-149z" fill="#231F20"/>
<path transform="translate(366,448)" d="m0 0 4 2 13 11 14 12 11 9 15 13 11 9 15 13 11 9 15 13 13 11 4 3-1 4-9 10-9 11-5 6h-12l-99-9h-8l10 9 11 9 15 13 11 9 15 13 11 9-4 6-13 15-9 11-3 2-15-13-11-9-15-13-11-9-15-13-11-9-15-13-26-22-6-5 6-8 13-15 9-11 19 1 87 8h5l-11-10-11-9-14-12-26-22-6-5 2-4 12-14 11-13z" fill="#231F20"/>
<path transform="translate(747,216)" d="m0 0 3 4 60 147v2l-31 13-6 2-17-11-25-16-17-11-25-16-15-10v3l16 39 19 47-1 2-37 15h-3l-11-26-42-103-9-23 26-11 16-6 15 10 25 16 20 13 25 16 8 5-19-47-14-34v-4z" fill="#231F1F"/>
<path transform="translate(1902,778)" d="m0 0 4 1 21 70 3 13 1 16-3 14-6 11-8 8-14 8-13 4-5 1h-15l-13-4-15-9-11 9-13 12-11 9-13 12-5 2-12-40 1-4 13-11 10-8 13-11 9-7-2-10-3-10v-3l-53 16-3-1-12-41 18-6 70-21z" fill="#231F20"/>
<path transform="translate(935,178)" d="m0 0h6l28 160v2l-39 7-5-1-11-62v-2l-20 4-36 6 11 63v2l-13 3-30 5-2-7-27-154 1-2 40-7h3l10 57v4l53-9h4l-4-20-7-40v-2l21-4z" fill="#231F20"/>
<path transform="translate(165,750)" d="m0 0 9 2 88 29 19 9 10 8 8 9 6 12 2 7 1 16-2 14-6 20-8 17-7 9-8 8-10 6-9 3-5 1h-19l-15-3-50-16-48-16 6-20 7-21 4-1 61 20 35 11 5 1h8l8-3 8-7 4-9v-14l-4-8-7-6-11-5-73-24-19-6-1-4z" fill="#231F20"/>
<path transform="translate(1832,629)" d="m0 0 4 5 15 30 10 19 18 35 9 17v3l-32 16-17-33-15-29-3-6-24 12 22 44 6 11v3l-29 15-3-1-18-35-10-19v-2l-23 12-2 2 21 41 13 25v3l-31 16-4-5-14-28-10-19-20-39-8-15v-3l45-23 23-12 62-32z" fill="#231F20"/>
<path transform="translate(243,602)" d="m0 0 16 8 16 9-2 6-15 27-16 29-4 7 6 2 16 9h3l14-26 13-23 3-5 4 1 26 14 1 3-14 26-13 23-3 7 5 2 18 10 3-3 13-24 10-18 12-21 2-1 29 16 2 2-13 24-13 23-13 24-13 23-7 12-16-8-56-31-56-31-16-9 2-6 13-23 13-24 13-23 13-24z" fill="#231F20"/>
<path transform="translate(1404,253)" d="m0 0 5 1 23 12 45 23 33 17 2 1-1 5-14 27-2 1-28-14-40-21-2 6-9 17v2l47 24 9 5-9 19-7 13-40-20-17-9-3 4-10 20 22 12 30 15 16 9-2 6-10 19-4 7-6-2-32-16-19-10-45-23-6-3 1-5 15-30 10-19 23-45 17-33z" fill="#231F20"/>
<path transform="translate(1037,176)" d="m0 0h20l25 1 3 8 20 62 30 95v2l-38-1-6-2-9-29v-2h-16l-36-1-12 30-1 1h-15l-28-1 1-5 17-44 18-46 16-41 10-26z" fill="#231F20"/>
<path transform="translate(1716,472)" d="m0 0 5 5 12 15 9 12-7 11-16 25-14 21-21 32-7 11 25-9 85-30 4 1 12 16 11 14v2l-48 17-108 38-8 2-11-14-14-18-4-5 2-5 11-17 23-35 48-73 10-15z" fill="#231F20"/>
<path transform="translate(1949,939)" d="m0 0h2l2 13 3 34-22 15-23 16-9 6 4 3 54 23 2 1 2 14 3 34-6-2-22-11-23-11-35-17-15-7-24 2-41 4h-4l-4-38v-6l27-3 40-4 9-6 20-15 19-14 21-16 19-14z" fill="#231F20"/>
<path transform="translate(502,336)" d="m0 0 5 5 13 16 6 8-2 4-14 11-15 12-4 3 2 4 10 13 13 16 11 14 13 16 10 13 13 16 5 7-5 5-16 13-13 10-5-5-11-14-13-16-10-13-13-16-11-14-12-15-3-4-4 1-16 13-14 11-4 2-11-13-11-14-1-4 16-13 13-10 16-13 14-11 15-12 14-11 16-13z" fill="#231F20"/>
<path transform="translate(1547,331)" d="m0 0 7 4 18 14 10 7-1 4-16 21-13 18-16 21-28 38-1 3 38 28 13 10-2 5-16 21-2 3-5-2-16-12-19-14-21-16-18-13-10-8 6-9 16-21 28-38 16-21 28-38z" fill="#231F20"/>
<path transform="translate(1659,420)" d="m0 0 7 6 15 14 10 10-6 7-16 17-12 12-7 8-15 15-7 8-16 16-7 8-15 15-7 8-5 5-4-2-18-18-8-7-2-4 7-7 7-8 15-15 7-8 16-16 7-8 15-15 7-8 15-15 7-8z" fill="#231F20"/>
<path transform="translate(567,298)" d="m0 0 4 5 19 32 17 28 15 25 17 28 13 22v2l-28 17-9 5-6-9-12-20-17-28-19-32-31-51v-2l29-17z" fill="#231F20"/>
<path transform="translate(161,987)" d="m0 0h28l20 4 14 7 7 8 3 9v11l-3 10-9 10-9 4-5 1h-27l-20-4-12-5-8-7-4-6-2-7v-10l4-11 6-7 12-6z" fill="#DBFE00"/>
<path transform="translate(1259,240)" d="m0 0 9 2 15 5 9 7 6 8 3 9 1 13-3 16-5 13-7 11-9 8-11 5-13 1-16-4-6-2 7-25 19-65z" fill="#DBFE00"/>
<path transform="translate(513,964)" d="m0 0h249l3 3-1 5-2 2h-250l-2-2v-6z" fill="#231F20"/>
<path transform="translate(561,809)" d="m0 0h238l3 4-2 5-1 1h-238l-3-3 1-6z" fill="#231F20"/>
<path transform="translate(1885,829)" d="m0 0h2l8 26v7l-3 8-4 5-7 4-4 1h-7l-9-3-7-8-6-18-2-10 25-8z" fill="#DBFE00"/>
<path transform="translate(649,921)" d="m0 0h167l2 2v6l-3 2h-165l-3-2-1-4 1-3z" fill="#231F20"/>
<path transform="translate(690,762)" d="m0 0h86l4 3-1 6-1 1h-89l-3-4 2-5z" fill="#231F20"/>
<path transform="translate(1058,219)" d="m0 0 2 3 13 47v3h-27l-6-1 17-51z" fill="#DBFE00"/>
</svg>
